<?xml version="1.0" encoding="utf-8"?>
<!-- Generator: Adobe Illustrator 23.1.0, SVG Export Plug-In . SVG Version: 6.00 Build 0)  -->
<svg version="1.1" id="Layer_1" xmlns="http://www.w3.org/2000/svg" xmlns:xlink="http://www.w3.org/1999/xlink" x="0px" y="0px"
	 viewBox="0 0 149 47.5" style="enable-background:new 0 0 149 47.5;" xml:space="preserve">
<style type="text/css">
	.st0{fill:#BA68C8;}
</style>
<title>my</title>
<g>
	<path class="st0" d="M148.9,38.2c0,2.9,0,5.9,0,8.8c0,0.4,0,0.4-0.4,0.4c0,0,0-0.1,0-0.1c0.2-0.2,0.3-0.5,0.2-0.8
		c0-0.2,0-0.4,0-0.5c0.1-2.4,0-4.9,0.1-7.3C148.7,38.5,148.7,38.3,148.9,38.2C148.8,38.1,148.8,38.1,148.9,38.2z"/>
	<path class="st0" d="M148.9,38.2L148.9,38.2L148.9,38.2c-0.2-0.4-0.2-0.7-0.1-1.1c0,0,0,0,0.1,0C148.9,37.4,148.9,37.8,148.9,38.2z
		"/>
	<path class="st0" d="M148.5,47.3C148.5,47.3,148.5,47.4,148.5,47.3c-0.1,0.1-0.2,0.1-0.3,0.1c0,0,0,0,0-0.1
		C148.3,47.2,148.4,47.2,148.5,47.3z"/>
	<path class="st0" d="M130.1,11.1c0,1.3,0.1,2.6,0.1,3.9c0,3.1,0,6.2,0,9.3c0,0.7,0,1.3,0,2c0,2.4,0,4.8,0.1,7.2c0,1-0.1,1-1,1
		c-2.2,0-4.3-0.1-6.5,0c-0.5,0-0.6-0.1-0.8-0.6c-0.1-0.5-0.1-1.1-0.1-1.6c0-0.6,0-1.3,0-1.9c0-0.7,0-1.5,0-2.2c0-1,0-2.1,0-3.1
		c0-0.3-0.3-0.4-0.5-0.2c-0.1,0.1-0.3,0.2-0.3,0.3c-0.2,0.4-0.6,0.7-1,1c-2.1,1.8-4.1,3.8-6.2,5.7c-0.8,0.8-1.7,1.5-2.5,2.2
		c-0.1,0.1-0.3,0.2-0.5,0.3c-0.4,0.3-0.8,0.2-1.1-0.2c-1.3-1.7-2.9-3-4.3-4.6c-0.7-0.8-0.7-0.6-0.7-1.8c0.1-5.8,0-11.7,0-17.5
		c0-0.4,0-0.7,0-1.1c-0.1-0.3-0.2-0.4-0.5-0.4c-0.9,0-1.8,0-2.7,0c-0.6,0-0.8-0.2-0.8-0.8c0-2.4,0-4.7,0-7.1c0-0.7,0.2-0.9,0.9-0.8
		c1.7,0.1,3.4,0,5.1,0c1.6,0,3.3,0.1,4.9,0.1c0.3,0,0.6,0,0.9,0c0.5,0,0.7,0.2,0.7,0.8c0,0.8-0.1,1.6-0.1,2.4c0,4.5,0,9.1,0,13.6
		c0,1.5,0,2.9,0,4.4c0,0.2,0,0.4,0,0.6c0,0.2,0.1,0.3,0.4,0.2c0.2-0.1,0.3-0.2,0.5-0.3c0.5-0.5,0.9-0.9,1.4-1.3
		c0.3-0.3,0.6-0.6,0.9-0.9c1.8-1.4,3.3-3.1,4.9-4.5c0.5-0.4,0.7-0.9,0.7-1.5c0-0.7,0-1.3,0-2c0-2.1,0-4.3,0.1-6.4
		c0-1.3,0-2.6,0.1-3.9c0-0.9,0.1-1,1-1c2,0,4,0,5.9,0c1,0,1.2,0.2,1.2,1.2c0,1.7,0,3.5,0,5.2C130.2,8.1,130.2,9.6,130.1,11.1
		c-0.2,0-0.5-0.1-0.6,0C129.7,11.1,129.9,11.1,130.1,11.1z"/>
	<path class="st0" d="M10.8,25.9c1.6,0,3.3,0,4.9,0c0.2,0,0.4,0,0.7,0c0.4,0,0.6-0.3,0.4-0.6c-0.5-0.8-0.9-1.6-1.6-2.3
		c-0.4-0.5-0.8-1-1.2-1.6c-1.1-1.8-2.5-3.5-3.8-5.2c-1.9-2.6-3.8-5.2-5.7-7.7C4.2,8.1,4.1,7.7,4.4,7.3c1-1.5,1.5-3.2,2.4-4.7
		c0.4-0.7,0.9-1.4,1.4-2c0.1-0.1,0.2-0.2,0.4-0.2c3.5-0.3,7-0.2,10.5-0.2c1.6,0,3.3,0.1,4.9,0.1c0.1,0,0.2,0,0.4,0
		C24.8,0.3,25,0.5,25,1c0,1,0,2,0,3c0,0.9,0,1.9,0,2.8c0,0.5,0.1,1,0,1.4c-0.1,0.4-0.3,0.5-0.7,0.6c0,0-0.1,0-0.1,0
		c-2.5,0-5,0-7.5,0c-0.1,0-0.3,0-0.4,0c-0.2,0-0.4,0-0.5,0.2c-0.1,0.2,0,0.4,0.1,0.6c0.3,0.4,0.6,0.8,0.9,1.2
		c1.7,2.1,3.2,4.4,4.8,6.5c0.7,1,1.5,2,2.3,3c0.2,0.2,0.3,0.4,0.4,0.6c0.2,0.5,0.6,0.9,0.8,1.4c0,0.1,0.1,0.1,0.1,0.1
		c0.6,0.4,1,0.9,1.4,1.5c0.2,0.3,0.5,0.6,0.7,0.8c0.2,0.2,0.2,0.4,0,0.7c-1.3,1.6-2.4,3.3-3.5,5c-0.5,0.7-0.9,1.3-1.4,2
		c-0.1,0.2-0.3,0.4-0.5,0.5c-0.2,0.1-0.3,0.3-0.3,0.4c-0.1,0.3-0.2,0.4-0.4,0.5c-0.7,0.4-1.4,0.5-2.2,0.5c-0.4,0-0.7,0-1.1-0.1
		c-1-0.1-2.1,0-3.1,0.1c-2.4,0-4.8,0-7.1,0c-2.2,0-4.5,0-6.7,0c-0.2,0-0.5,0.1-0.7-0.2c-0.1-0.2,0-0.5,0.2-0.7
		c0.4-0.7,0.8-1.4,1.2-2.1c0.5-0.9,1-1.7,1.6-2.5c0.5-0.7,0.9-1.4,1.3-2.1c0.3-0.6,0.8-0.9,1.5-0.8C7.6,25.9,9.2,25.9,10.8,25.9
		C10.8,25.9,10.8,25.9,10.8,25.9z"/>
	<path class="st0" d="M148.5,47.3c-0.1,0-0.2,0-0.3,0c-0.2,0-0.3-0.2-0.5-0.3c-0.5-0.4-0.9-0.9-1.4-1.2c-1.4-1-2.7-2-4-3.1
		c-2.5-1.9-5-3.9-7.5-5.8c-0.7-0.5-0.8-1.2-0.8-1.9c0-0.9,0-1.8,0-2.7c0-1.5,0-3.1,0.1-4.6c0-1.3,0-2.6,0-4c0-0.1,0-0.2,0-0.3
		c0-6.8,0-13.5,0-20.3c0-0.7,0-1.5,0-2.2c0-0.6,0.3-0.9,0.9-0.8c0.8,0.1,1.7,0.1,2.5,0.1c1,0,2,0,3.1-0.1c0.3,0,0.5,0,0.8,0
		c0.8,0,1.2,0.5,1.2,1.3c0,0.5-0.1,0.9-0.1,1.3c0,1-0.1,2-0.1,3c0,8,0,16,0,24c0,0.3,0,0.7,0,1c0,0.6,0.3,1.1,0.7,1.5
		c0,0,0.1,0.1,0.1,0.1c0.4,0,0.7,0.3,0.9,0.5c1.2,0.9,2.4,1.9,3.6,2.8c0,0,0.1,0.1,0.2,0.1c0.6,0.2,0.9,0.7,0.9,1.3
		c0,0.4,0,0.7,0,1.1c0,1.7,0,3.5,0,5.2c0,1.2-0.1,2.3,0,3.5C148.8,47.1,148.7,47.3,148.5,47.3z"/>
	<path class="st0" d="M64.2,34.3c-0.3,0.2-0.7,0.1-1,0c-0.1,0-0.1-0.2-0.1-0.3c0-0.5-0.1-1-0.1-1.5c0-10.3,0-20.6,0-30.9
		c0-0.3,0-0.5,0-0.8c0-0.4,0.1-0.5,0.5-0.5c0.3,0,0.7,0,1,0c1.6,0,3.3,0,4.9,0c0.3,0,0.7-0.1,1,0c0.4,0.1,0.6,0.3,0.6,0.7
		c0,0.2,0,0.3,0,0.5c0,9.5,0,19,0,28.5c0,1.2,0,2.4,0,3.6c0,0.6-0.2,0.8-0.8,0.8c-2-0.1-4,0-6.1,0C64.3,34.3,64.2,34.3,64.2,34.3
		c0-0.2,0.1-0.5,0-0.7C64.2,33.8,64.2,34.1,64.2,34.3z"/>
	<path class="st0" d="M64.2,34.3c0-0.2,0-0.5,0-0.7c0,0,0,0,0.1,0C64.2,33.8,64.2,34.1,64.2,34.3C64.2,34.3,64.2,34.3,64.2,34.3z"/>
	<path class="st0" d="M130.1,11.1c-0.2,0-0.4,0-0.6,0c0,0,0,0,0-0.1C129.7,11.1,129.9,11.1,130.1,11.1
		C130.1,11.1,130.1,11.1,130.1,11.1z"/>
	<path class="st0" d="M59.1,17.2C59.1,17.2,59.1,17.2,59.1,17.2c0-4.5,0-9,0-13.6c0-1,0-1.9,0-2.9c0-0.3-0.1-0.5-0.4-0.5
		c-0.8,0-1.6-0.1-2.3-0.1c-0.9-0.1-1.9,0.1-2.8,0c-0.2,0-0.5,0-0.7,0c-1,0-2.1,0.2-3.1,0.1c-0.3,0-0.5,0.1-0.7,0.3
		c-0.2,0.3-0.4,0.5-0.6,0.8c-0.4,0.8-1.1,1.3-1.6,2c-0.1,0.2-0.2,0.4-0.3,0.5c-0.5,0.4-0.9,1-1.2,1.5c-0.6,1-1.3,1.9-2.1,2.8
		c-1,1.1-2,2.2-2.7,3.5c0,0.1-0.1,0.1-0.2,0.2c-0.3,0.3-0.6,0.3-0.9-0.1c-0.2-0.2-0.4-0.5-0.6-0.7c-0.2-0.2-0.4-0.3-0.6-0.5
		c-0.4-0.5-0.9-1-1.4-1.4c-0.5-0.4-0.6-0.4-1,0.1c-0.6,0.9-1.3,1.8-1.9,2.8c-0.2,0.3-0.5,0.7-0.8,1c-0.5,0.5-0.8,1-1.3,1.4
		c-0.1,0.1-0.1,0.2-0.2,0.2c-0.1,0.1-0.2,0.2-0.3,0.3c-0.4,0.2-0.4,0.5-0.1,0.8c0.1,0.1,0.1,0.1,0.2,0.2c1,0.8,1.8,1.7,2.7,2.5
		c0.4,0.4,0.4,0.7,0.1,1.1c-0.3,0.3-0.5,0.6-0.6,0.9c-0.4,0.8-1,1.3-1.5,2c-0.5,0.7-1.1,1.3-1.6,2c-0.9,1.2-1.7,2.5-2.6,3.6
		c-0.2,0.2-0.1,0.4,0.1,0.6c0.2,0.2,0.4,0.4,0.6,0.6c0.9,0.9,1.6,1.9,2.5,2.8c0.3,0.4,0.7,0.7,1,1.1c0.4,0.4,0.9,0.9,1.4,1.2
		c0.2,0.1,0.4,0.1,0.6-0.1c0.2-0.2,0.4-0.4,0.5-0.6c0.4-0.5,0.7-1.1,1.1-1.6c1-1.4,2.1-2.7,3.2-4c0.6-0.8,1.2-1.6,1.8-2.3
		c0.2-0.3,0.4-0.3,0.6,0c0.1,0.1,0.2,0.2,0.3,0.3c1,0.9,2,1.8,3,2.8c1.7,1.7,3.4,3.4,5.1,5c0.4,0.3,0.8,0.5,1.3,0.5c2,0,4.1,0,6.1,0
		c0.5,0,0.9,0,1.4,0c0.5,0,0.7-0.2,0.7-0.7c0-0.7,0-1.5,0-2.2C59.1,26.6,59.1,21.9,59.1,17.2z M50.8,22.6c0,0.1,0,0.2,0,0.4
		c-0.5-0.5-1-0.9-1.5-1.4c-1.1-1-2.1-2-3.2-3c-0.3-0.3-0.3-0.4,0-0.7c1.4-1.7,2.7-3.4,4.1-5.1c0,0,0,0,0.1-0.1
		c0.1-0.1,0.2-0.4,0.4-0.3c0.1,0.1,0.1,0.3,0.1,0.4C50.8,16.1,50.8,19.4,50.8,22.6z"/>
	<path class="st0" d="M39.4,23.5c0.2,0,0.5,0,0.7,0c0,0,0,0,0,0C39.9,23.5,39.6,23.5,39.4,23.5C39.4,23.5,39.4,23.5,39.4,23.5z"/>
	<ellipse class="st0" cx="32" cy="31.7" rx="0" ry="0.3"/>
	<path class="st0" d="M35.3,12.6c0,0.2,0,0.3,0,0.5C35.3,12.9,35.3,12.8,35.3,12.6z"/>
	<path class="st0" d="M31.8,30.4c0.1,0.2,0,0.3,0,0.4C31.8,30.7,31.8,30.6,31.8,30.4z"/>
	<path class="st0" d="M58.1,4.2c0.1,0,0.2,0,0.3,0C58.2,4.3,58.1,4.3,58.1,4.2z"/>
	<path class="st0" d="M35.3,12c0,0.1,0,0.2,0,0.3C35.2,12.2,35.3,12.1,35.3,12z"/>
	<path class="st0" d="M105.7,15.2c0-1.5,0-3,0-4.5c0,0,0,0,0,0C105.8,12.2,105.8,13.7,105.7,15.2C105.8,15.2,105.8,15.2,105.7,15.2z
		"/>
	<path class="st0" d="M128.6,14.4c0,1.2,0,2.5,0,3.7c0,0,0,0,0,0C128.6,16.9,128.6,15.7,128.6,14.4
		C128.6,14.4,128.6,14.4,128.6,14.4z"/>
	<path class="st0" d="M111.2,12.3c0-0.5,0-0.9,0-1.4c0,0,0,0,0,0C111.2,11.4,111.2,11.8,111.2,12.3
		C111.2,12.3,111.2,12.3,111.2,12.3z"/>
	<path class="st0" d="M128.8,18.9c0,0.4,0,0.7,0,1.1C128.8,19.6,128.7,19.2,128.8,18.9z"/>
	<path class="st0" d="M123.5,9.3c0,0.4,0,0.7,0,1.1c0,0,0,0,0,0C123.5,10.1,123.5,9.7,123.5,9.3C123.5,9.4,123.5,9.3,123.5,9.3z"/>
	<path class="st0" d="M129,12.4c0-0.3,0-0.5,0-0.8c0,0,0,0,0,0C129.1,11.8,129.1,12.1,129,12.4C129,12.4,129,12.4,129,12.4z"/>
	<path class="st0" d="M128.1,25.1c-0.3,0-0.3,0-0.3-0.5C127.9,24.8,127.7,25.1,128.1,25.1z"/>
	<path class="st0" d="M123.1,4.5c0,0.2,0,0.4,0,0.6c0,0,0,0,0,0C123.1,4.9,123.1,4.7,123.1,4.5C123.1,4.5,123.1,4.5,123.1,4.5z"/>
	<ellipse class="st0" cx="122.8" cy="13.9" rx="0" ry="0.4"/>
	<path class="st0" d="M112.5,4.9c0-0.2,0-0.4,0-0.6c0,0,0,0,0,0C112.5,4.5,112.5,4.7,112.5,4.9C112.5,4.9,112.5,4.9,112.5,4.9z"/>
	<path class="st0" d="M129.2,23.9c0,0.2,0,0.4,0,0.6c0,0,0,0,0,0C129.2,24.3,129.2,24.1,129.2,23.9
		C129.2,23.9,129.2,23.9,129.2,23.9z"/>
	<ellipse class="st0" cx="129.1" cy="22.8" rx="0" ry="0.4"/>
	<path class="st0" d="M128.5,22c0-0.2,0-0.3,0-0.5c0,0,0,0,0,0C128.6,21.7,128.6,21.9,128.5,22C128.6,22,128.6,22,128.5,22z"/>
	<path class="st0" d="M101.7,5.8c0,0.2,0,0.3,0,0.5c0,0,0,0,0,0C101.7,6.1,101.7,5.9,101.7,5.8C101.7,5.8,101.7,5.8,101.7,5.8z"/>
	<path class="st0" d="M129.1,21.1c0,0.2,0,0.4,0,0.5c0,0,0,0,0,0C129,21.5,129,21.3,129.1,21.1C129,21.1,129.1,21.1,129.1,21.1z"/>
	<path class="st0" d="M122.8,30.1c0,0.2,0,0.3,0,0.5c0,0,0,0,0,0C122.8,30.4,122.8,30.2,122.8,30.1
		C122.8,30.1,122.8,30.1,122.8,30.1z"/>
	<path class="st0" d="M129.1,27.6c0,0.2,0,0.3,0,0.5c0,0,0,0,0,0C129,27.9,129,27.7,129.1,27.6C129,27.6,129.1,27.6,129.1,27.6z"/>
	<ellipse class="st0" cx="105.8" cy="16.7" rx="0" ry="0.3"/>
	<ellipse class="st0" cx="101.9" cy="3.3" rx="0" ry="0.3"/>
	<path class="st0" d="M122.8,29.5c0-0.1,0-0.3,0-0.4c0,0,0,0,0,0C122.9,29.2,122.9,29.3,122.8,29.5
		C122.9,29.5,122.9,29.5,122.8,29.5z"/>
	<path class="st0" d="M122.8,7.5c0-0.1,0-0.3,0-0.4c0,0,0,0,0,0C122.9,7.2,122.9,7.3,122.8,7.5C122.9,7.5,122.9,7.5,122.8,7.5z"/>
	<path class="st0" d="M129.2,25.8c-0.1-0.2,0-0.4,0-0.5C129.3,25.5,129.3,25.6,129.2,25.8z"/>
	<path class="st0" d="M124.7,28.9c0-0.2-0.1-0.3,0-0.5C124.7,28.6,124.7,28.7,124.7,28.9z"/>
	<path class="st0" d="M118.2,26.2c0.1,0,0.2,0,0.3,0c0,0,0,0,0,0C118.5,26.3,118.3,26.3,118.2,26.2
		C118.2,26.3,118.2,26.3,118.2,26.2z"/>
	<path class="st0" d="M122.9,6.2c0,0.1,0,0.2,0,0.4C122.8,6.5,122.8,6.3,122.9,6.2z"/>
	<path class="st0" d="M101.8,4.3c0,0.1,0,0.2,0,0.4c0,0,0,0,0,0C101.8,4.5,101.8,4.4,101.8,4.3C101.8,4.3,101.8,4.3,101.8,4.3z"/>
	<path class="st0" d="M123,10.9c0-0.1,0-0.2,0-0.4C123.1,10.7,123.1,10.8,123,10.9z"/>
	<path class="st0" d="M122.9,12.7c0,0.1,0,0.2,0,0.3C122.8,12.9,122.8,12.8,122.9,12.7z"/>
	<path class="st0" d="M109.1,30.6c-0.1-0.1,0-0.2,0-0.3C109.1,30.4,109.1,30.5,109.1,30.6z"/>
	<path class="st0" d="M123,8.9c0,0.1,0,0.2,0,0.3C123,9.1,123,9,123,8.9z"/>
	<path class="st0" d="M106,19.2c0-0.1,0-0.2,0-0.3C106.1,19,106,19.1,106,19.2z"/>
	<path class="st0" d="M105.9,20.3c0-0.1,0-0.2,0-0.3C106,20.1,106,20.2,105.9,20.3z"/>
	<path class="st0" d="M116,20.2c0.1-0.1,0.2,0,0.3,0C116.2,20.3,116.1,20.2,116,20.2z"/>
	<path class="st0" d="M101.9,2.1c0,0.1,0,0.1,0,0.2C101.9,2.3,101.9,2.2,101.9,2.1z"/>
	<path class="st0" d="M127.9,31.6c0.1,0.1,0,0.2,0,0.3C127.9,31.8,127.9,31.7,127.9,31.6z"/>
	<path class="st0" d="M76.2,25.6c0-0.7,0-1.3,0-2c0,0,0,0,0,0C76.2,24.2,76.2,24.9,76.2,25.6C76.2,25.6,76.2,25.6,76.2,25.6z"/>
	<path class="st0" d="M76.4,30.3c0-0.6,0-1.2,0-1.8c0,0,0,0,0,0C76.4,29.1,76.4,29.7,76.4,30.3C76.4,30.3,76.4,30.3,76.4,30.3z"/>
	<ellipse class="st0" cx="75.8" cy="23.8" rx="0" ry="1.1"/>
	<path class="st0" d="M75.9,21.7c0-0.3,0-0.6,0-0.9c0,0,0,0,0,0C75.9,21.1,75.9,21.4,75.9,21.7C75.9,21.7,75.9,21.7,75.9,21.7z"/>
	<path class="st0" d="M100.1,26.6c0-0.3-0.1-0.5,0-0.8C100.1,26,100.1,26.3,100.1,26.6z"/>
	<path class="st0" d="M76,19.2c0,0.2,0,0.4,0,0.6c0,0,0,0,0,0C75.9,19.6,75.9,19.4,76,19.2C75.9,19.2,76,19.2,76,19.2z"/>
	<path class="st0" d="M75.7,2.6c0-0.2,0-0.4,0-0.5c0,0,0,0,0,0C75.7,2.3,75.7,2.4,75.7,2.6C75.7,2.6,75.7,2.6,75.7,2.6z"/>
	<path class="st0" d="M92.2,32.3c-0.1,0-0.3,0-0.4,0c0,0,0,0,0,0C91.9,32.2,92,32.2,92.2,32.3C92.2,32.3,92.2,32.3,92.2,32.3z"/>
	<path class="st0" d="M79.4,33.1c0.1,0,0.3,0,0.4,0c0,0,0,0,0,0C79.7,33.1,79.5,33.1,79.4,33.1C79.4,33.1,79.4,33.1,79.4,33.1z"/>
	<ellipse class="st0" cx="76.2" cy="26.5" rx="0" ry="0.3"/>
	<ellipse class="st0" cx="76.3" cy="27.5" rx="0" ry="0.3"/>
	<path class="st0" d="M76.2,11.3c0-0.2,0-0.3,0-0.5C76.2,11,76.2,11.1,76.2,11.3z"/>
	<path class="st0" d="M76.3,22.1c0-0.1-0.1-0.2,0-0.4C76.4,21.9,76.3,22,76.3,22.1z"/>
	<path class="st0" d="M103.4,24.8c-0.5-0.7-0.8-1.5-1.4-2c-0.5-0.5-0.8-1-1.1-1.6c-0.2-0.3-0.3-0.5-0.5-0.8
		c-0.7-1.3-1.8-2.4-2.6-3.7c-0.6-0.9-1.3-1.8-1.7-2.8c-0.1-0.2-0.3-0.4-0.4-0.6c-0.3-0.3-0.6-0.6-0.8-1C94,10.5,93,8.9,91.9,7.4
		c-1.4-2.1-2.9-4.2-4.2-6.5c-0.3-0.4-0.6-0.6-1.1-0.6c-2.8,0-5.7,0-8.5,0c-0.9,0-1.8,0-2.6,0c-0.4,0-0.6,0.2-0.7,0.6
		c0,0.1,0,0.3,0,0.4c0,1.6,0,3.2,0,4.8c0,3.7,0,7.4,0,11.1c0,0,0,0,0,0c0,1.4,0,2.8,0,4.3c0,3.8,0,7.7,0,11.5c0,0.3,0,0.5,0.1,0.8
		c0,0.3,0.2,0.5,0.5,0.5c0.4,0.1,0.7,0,1.1,0c2.2,0,4.4,0,6.5,0c3.7,0,7.4,0,11,0c0.3,0,0.7,0,1,0c0.6,0,1.3,0.1,1.9-0.1
		c0.3-0.1,0.5-0.3,0.6-0.5c0.1-0.2,0.2-0.4,0.3-0.6c1.1-1.5,2.2-3,3-4.7c0.1-0.2,0.3-0.4,0.5-0.6c0.3-0.2,0.5-0.4,0.7-0.7
		c0.5-0.6,0.9-1.3,1.3-1.9C103.5,25.1,103.5,24.9,103.4,24.8z M87.2,13.8c-0.3-0.1-0.3,0.2-0.3,0.4C86.7,13.7,86.8,13.7,87.2,13.8z
		 M82.9,0.9C82.9,0.9,82.9,0.9,82.9,0.9c0.1,0,0.2,0,0.3,0c0,0,0,0,0,0C83.2,0.9,83.1,0.9,82.9,0.9z M84.3,30.8c-0.2,0-0.3,0-0.5,0
		c0,0,0,0,0,0C84,30.7,84.2,30.7,84.3,30.8C84.3,30.8,84.3,30.8,84.3,30.8z M89.2,29.8c0.4,0,0.8,0,1.2,0c0,0,0,0,0,0
		C90.1,29.9,89.7,29.9,89.2,29.8C89.2,29.9,89.2,29.9,89.2,29.8z M91,32.9c-0.3,0-0.7,0-1,0c0,0,0,0,0,0
		C90.4,32.8,90.7,32.8,91,32.9C91,32.8,91,32.9,91,32.9z M91,32.3C91,32.3,91,32.2,91,32.3c0.1,0,0.3,0,0.4,0c0,0,0,0,0,0
		C91.3,32.3,91.1,32.3,91,32.3z M85,26.6C85.1,26.6,85.1,26.5,85,26.6c2.3,0,4.7,0,7,0c0,0,0,0,0,0C89.7,26.6,87.4,26.6,85,26.6z
		 M93.2,25.9c-0.4,0-0.7,0-1.1,0c-1.8,0-3.6,0-5.4,0c-1,0-2,0-3.1,0c-0.2,0-0.3-0.1-0.3-0.3c0-2.4-0.1-4.7-0.1-7.1
		c0-1.9,0-3.8,0.1-5.7c0-0.6,0-1.2-0.1-1.8c0-0.1-0.1-0.3,0.1-0.4c0.2-0.1,0.3,0.1,0.4,0.2c0.4,0.5,0.8,1.2,1.2,1.7
		c0.3,0.4,0.5,0.8,0.8,1.1c0,0.1,0.1,0.1,0.1,0.2c0.4,0.9,1,1.6,1.6,2.4c0.5,0.6,0.8,1.4,1.3,2c0.6,0.8,1,1.7,1.5,2.6
		c0.8,1.2,1.6,2.4,2.4,3.5c0.3,0.4,0.5,0.8,0.7,1.3C93.5,25.9,93.5,25.9,93.2,25.9z"/>
	<path class="st0" d="M76.2,6c0,0.1,0.1,0.2,0,0.3C76.2,6.2,76.2,6.1,76.2,6z"/>
	<path class="st0" d="M76.3,22.9c-0.1-0.1,0-0.2,0-0.3C76.3,22.7,76.2,22.8,76.3,22.9z"/>
	<path class="st0" d="M76.1,32.8c0-0.1,0-0.2,0-0.3C76.1,32.6,76.1,32.7,76.1,32.8z"/>
	<path class="st0" d="M101.4,25.5c0.1,0.2,0,0.3,0,0.4C101.4,25.8,101.4,25.7,101.4,25.5z"/>
	<path class="st0" d="M81.9,33.3c-0.1,0-0.2,0-0.3,0C81.7,33.2,81.8,33.2,81.9,33.3z"/>
	<path class="st0" d="M78.3,33.1c0.1,0,0.2,0,0.3,0c0,0,0,0,0,0C78.5,33.1,78.4,33.1,78.3,33.1C78.3,33.1,78.3,33.1,78.3,33.1z"/>
	<path class="st0" d="M94.5,25.3c0,0.1,0.1,0.2,0,0.3C94.5,25.5,94.5,25.4,94.5,25.3z"/>
	<path class="st0" d="M75.8,30.4c0,0.1,0,0.2,0,0.3C75.7,30.5,75.7,30.4,75.8,30.4z"/>
	<ellipse class="st0" cx="15.3" cy="0.7" rx="1.2" ry="0"/>
	<ellipse class="st0" cx="10.3" cy="0.5" rx="0.9" ry="0"/>
	<path class="st0" d="M9.6,27.4c-0.4,0-0.9,0-1.3,0c0,0,0,0,0,0C8.7,27.3,9.1,27.3,9.6,27.4C9.6,27.3,9.6,27.3,9.6,27.4z"/>
	<path class="st0" d="M22.9,8.6c0.4,0,0.7,0,1.1,0c0,0,0,0,0,0C23.6,8.7,23.3,8.7,22.9,8.6C22.9,8.7,22.9,8.6,22.9,8.6z"/>
	<path class="st0" d="M18.2,7c-0.2,0-0.4,0-0.6,0c0,0,0,0,0,0C17.8,7,18,7,18.2,7C18.2,7,18.2,7,18.2,7z"/>
	<path class="st0" d="M4.6,33.4c0.2,0,0.4,0,0.6,0C5,33.4,4.8,33.4,4.6,33.4z"/>
	<ellipse class="st0" cx="17.6" cy="29.1" rx="0.4" ry="0"/>
	<path class="st0" d="M7.1,33.6c-0.2,0-0.3,0-0.5,0c0,0,0,0,0,0C6.8,33.6,6.9,33.6,7.1,33.6C7.1,33.6,7.1,33.6,7.1,33.6z"/>
	<path class="st0" d="M16.8,1.5c-0.2,0-0.3,0-0.5,0c0,0,0,0,0,0C16.5,1.5,16.7,1.5,16.8,1.5C16.8,1.5,16.8,1.5,16.8,1.5z"/>
	<path class="st0" d="M12.2,2.1c-0.1,0-0.3,0-0.4,0c0,0,0,0,0,0C12,2,12.1,2,12.2,2.1C12.3,2.1,12.3,2.1,12.2,2.1z"/>
	<path class="st0" d="M14.5,2.7c-0.1,0-0.3,0-0.4,0c0,0,0,0,0,0C14.2,2.7,14.3,2.7,14.5,2.7C14.5,2.7,14.5,2.7,14.5,2.7z"/>
	<path class="st0" d="M12.1,0.6c-0.1,0-0.2,0-0.3,0C11.9,0.5,12,0.5,12.1,0.6z"/>
	<path class="st0" d="M19.9,8.7c-0.1,0-0.2,0-0.3,0c0,0,0,0,0,0C19.6,8.6,19.8,8.6,19.9,8.7C19.9,8.6,19.9,8.7,19.9,8.7z"/>
	<path class="st0" d="M6.8,27.3c0.2,0,0.3,0,0.4,0C7.1,27.4,7,27.4,6.8,27.3z"/>
	<path class="st0" d="M13.9,0.7c-0.2,0-0.3,0-0.4,0C13.6,0.6,13.7,0.6,13.9,0.7z"/>
	<path class="st0" d="M13,0.6c-0.1,0-0.2,0-0.3,0C12.8,0.6,12.9,0.6,13,0.6z"/>
	<path class="st0" d="M5.4,7.6c0-0.1,0-0.2,0-0.3c0,0,0,0,0,0C5.5,7.5,5.5,7.6,5.4,7.6C5.5,7.6,5.4,7.6,5.4,7.6z"/>
	<path class="st0" d="M20.9,8.6c-0.1,0-0.2,0-0.3,0C20.6,8.6,20.7,8.6,20.9,8.6z"/>
	<path class="st0" d="M140.4,21.1c0-2.1,0-4.2,0-6.3c0,0,0,0,0,0C140.5,17,140.5,19,140.4,21.1C140.4,21.1,140.4,21.1,140.4,21.1z"
		/>
	<path class="st0" d="M135.1,27.9c0-1.7,0-3.4,0-5.1c0,0,0,0,0,0C135.1,24.5,135.1,26.3,135.1,27.9C135.1,28,135.1,28,135.1,27.9z"
		/>
	<path class="st0" d="M135.1,34.3c0-1.3,0-2.7,0-4c0,0,0,0,0,0C135.2,31.6,135.2,33,135.1,34.3C135.2,34.3,135.2,34.3,135.1,34.3z"
		/>
	<ellipse class="st0" cx="134.9" cy="3.3" rx="0" ry="1"/>
	<path class="st0" d="M140.1,10.5c0-0.4,0-0.9,0-1.3c0,0,0,0,0,0C140.2,9.6,140.2,10,140.1,10.5C140.1,10.5,140.1,10.5,140.1,10.5z"
		/>
	<ellipse class="st0" cx="134.3" cy="28.5" rx="0" ry="0.8"/>
	<path class="st0" d="M141.5,30.5c0,0.3,0,0.6,0,0.9c0,0,0,0,0,0C141.5,31.1,141.5,30.8,141.5,30.5
		C141.5,30.5,141.5,30.5,141.5,30.5z"/>
	<ellipse class="st0" cx="140.9" cy="6.6" rx="0" ry="0.5"/>
	<path class="st0" d="M137.3,1.1c-0.2,0-0.5,0-0.7,0C136.8,1.1,137.1,1.1,137.3,1.1z"/>
	<path class="st0" d="M134.7,34.3c0-0.2,0-0.4,0-0.6c0,0,0,0,0,0C134.8,33.9,134.8,34.1,134.7,34.3
		C134.7,34.3,134.7,34.3,134.7,34.3z"/>
	<path class="st0" d="M140.2,6.1c0,0.2,0,0.4,0,0.6C140.2,6.5,140.2,6.3,140.2,6.1z"/>
	<path class="st0" d="M135.1,21.7c0-0.2,0-0.4,0-0.6c0,0,0,0,0,0C135.2,21.3,135.2,21.5,135.1,21.7
		C135.2,21.7,135.2,21.7,135.1,21.7z"/>
	<ellipse class="st0" cx="140.6" cy="26.8" rx="0" ry="0.4"/>
	<ellipse class="st0" cx="140.1" cy="8.1" rx="0" ry="0.3"/>
	<path class="st0" d="M140.5,23.4c0-0.2,0-0.3,0-0.5c0,0,0,0,0,0C140.6,23.1,140.6,23.2,140.5,23.4
		C140.6,23.4,140.6,23.4,140.5,23.4z"/>
	<path class="st0" d="M138.6,2c0,0.2,0,0.3,0,0.5c0,0,0,0,0,0C138.6,2.3,138.6,2.1,138.6,2C138.6,2,138.6,2,138.6,2z"/>
	<ellipse class="st0" cx="134.7" cy="20.2" rx="0" ry="0.3"/>
	<path class="st0" d="M134.3,24.2c0,0.1,0,0.3,0,0.4c0,0,0,0,0,0C134.3,24.5,134.3,24.3,134.3,24.2
		C134.3,24.2,134.3,24.2,134.3,24.2z"/>
	<path class="st0" d="M140.6,25.3c0.1,0.1,0,0.3,0,0.4C140.5,25.6,140.5,25.5,140.6,25.3z"/>
	<path class="st0" d="M140.5,22.3c0-0.2,0-0.3,0-0.5C140.5,22,140.5,22.2,140.5,22.3z"/>
	<path class="st0" d="M140.1,11.6c0-0.1,0-0.2,0-0.4c0,0,0,0,0,0C140.2,11.4,140.2,11.5,140.1,11.6
		C140.1,11.6,140.1,11.6,140.1,11.6z"/>
	<path class="st0" d="M140.6,27.6c0,0.2,0,0.3,0,0.5C140.6,27.9,140.6,27.8,140.6,27.6z"/>
	<path class="st0" d="M135.2,20c0,0.1,0,0.2,0,0.4C135.2,20.2,135.2,20.1,135.2,20z"/>
	<path class="st0" d="M134.7,18.7c0.1,0.1,0,0.2,0,0.3C134.7,18.9,134.7,18.8,134.7,18.7z"/>
	<path class="st0" d="M135.1,6.6c0,0.1,0,0.2,0,0.3C135.1,6.8,135.1,6.7,135.1,6.6z"/>
	<path class="st0" d="M135.3,19.5c0-0.1-0.1-0.2,0-0.3C135.3,19.3,135.3,19.4,135.3,19.5z"/>
	<path class="st0" d="M147.9,42.2c0-0.1,0-0.2,0-0.3C148,42,147.9,42.1,147.9,42.2z"/>
	<path class="st0" d="M134.4,29.6c0,0.1,0,0.2,0,0.3C134.3,29.8,134.3,29.7,134.4,29.6z"/>
	<path class="st0" d="M138.6,0.9c-0.1,0-0.1,0-0.2,0C138.4,0.9,138.5,0.9,138.6,0.9z"/>
	<path class="st0" d="M134.7,32.6c0.1,0.1,0,0.2,0,0.3C134.6,32.8,134.7,32.7,134.7,32.6z"/>
	<path class="st0" d="M137.8,34.1c0,0.1,0,0.2,0,0.3C137.8,34.3,137.8,34.2,137.8,34.1z"/>
	<path class="st0" d="M64.2,23.3c0-1.5,0-3.1,0-4.6c0,0,0,0,0,0C64.3,20.2,64.3,21.8,64.2,23.3C64.2,23.3,64.2,23.3,64.2,23.3z"/>
	<path class="st0" d="M64.5,8.6c0,1.4,0,2.8,0,4.2c0,0,0,0,0,0C64.4,11.4,64.4,10,64.5,8.6C64.4,8.6,64.4,8.6,64.5,8.6z"/>
	<path class="st0" d="M64.2,26.9c0-0.4,0-0.7,0-1.1c0,0,0,0,0,0C64.2,26.2,64.2,26.6,64.2,26.9C64.2,26.9,64.2,26.9,64.2,26.9z"/>
	<path class="st0" d="M64.4,5.6c0,0.4,0,0.7,0,1.1c0,0,0,0,0,0C64.4,6.3,64.4,6,64.4,5.6C64.4,5.6,64.4,5.6,64.4,5.6z"/>
	<path class="st0" d="M64.3,16.7c0-0.3,0-0.6,0-0.9c0,0,0,0,0,0C64.3,16.1,64.3,16.4,64.3,16.7C64.3,16.7,64.3,16.7,64.3,16.7z"/>
	<path class="st0" d="M64.1,31.5c0,0.3,0,0.5,0,0.8c0,0,0,0,0,0C64.1,32,64.1,31.7,64.1,31.5C64.1,31.5,64.1,31.5,64.1,31.5z"/>
	<path class="st0" d="M64.4,14.1c0,0.2,0,0.4,0,0.6C64.3,14.6,64.3,14.3,64.4,14.1z"/>
	<path class="st0" d="M64.1,28.6c0-0.2,0-0.4,0-0.6C64.2,28.2,64.2,28.4,64.1,28.6z"/>
	<path class="st0" d="M64.1,3.2c0.1,0.2,0,0.3,0,0.4C64.1,3.4,64.1,3.3,64.1,3.2z"/>
</g>
</svg>
